<?xml version="1.0" standalone="no"?>
<svg version="1.0" xmlns="http://www.w3.org/2000/svg"
 width="1133.000000pt" height="662.000000pt" viewBox="0 0 1133.000000 662.000000"
 preserveAspectRatio="xMidYMid meet">

<g transform="translate(0.000000,662.000000) scale(0.100000,-0.100000)"
fill="#000000" stroke="none">
<path d="M90 5425 l0 -1125 990 0 990 0 0 -615 0 -615 -990 0 -990 0 0 -1505
0 -1505 2785 0 2785 0 0 1340 0 1340 1158 -2 1157 -3 3 -797 2 -798 285 0 285
0 0 525 0 525 390 0 390 0 0 -1065 0 -1065 960 0 960 0 0 3245 0 3245 -5580 0
-5580 0 0 -1125z m3440 640 l0 -425 25 0 25 0 0 425 0 425 1210 0 1210 0 0
-426 0 -425 28 3 27 3 3 423 2 422 1480 0 1480 0 0 -426 0 -425 28 3 27 3 3
423 2 422 1060 0 1060 0 0 -1270 0 -1270 -510 0 -510 0 0 -30 0 -30 510 0 510
0 0 -1885 0 -1885 -905 0 -905 0 0 1335 0 1335 -450 0 -450 0 0 -795 0 -795
-230 0 -230 0 0 795 0 795 -1215 0 -1215 0 0 -235 0 -235 -370 0 -370 0 0 -30
0 -30 370 0 370 0 0 -1070 0 -1070 -2725 0 -2725 0 0 1445 0 1445 990 0 990 0
0 675 0 675 -990 0 -990 0 0 1065 0 1065 1690 0 1690 0 0 -425z m5800 -3385
l0 -50 -390 0 -390 0 0 50 0 50 390 0 390 0 0 -50z m0 -175 l0 -65 -390 0
-390 0 0 65 0 65 390 0 390 0 0 -65z m0 -190 l0 -65 -390 0 -390 0 0 65 0 65
390 0 390 0 0 -65z"/>
<path d="M1771 5559 c-128 -51 -169 -213 -79 -315 124 -141 348 -60 348 125 0
85 -35 142 -112 182 -40 20 -116 24 -157 8z m119 -139 c0 -40 4 -70 10 -70 6
0 10 -9 10 -20 0 -11 -4 -20 -10 -20 -5 0 -10 -9 -10 -20 0 -13 -7 -20 -20
-20 -13 0 -20 7 -20 20 0 17 -7 20 -45 20 -57 0 -58 11 -8 94 48 81 52 86 74
86 17 0 19 -8 19 -70z"/>
<path d="M1827 5385 c-16 -34 -16 -35 3 -35 16 0 20 7 20 35 0 19 -1 35 -3 35
-2 0 -11 -16 -20 -35z"/>
<path d="M10201 5559 c-79 -32 -138 -124 -128 -204 12 -112 113 -194 220 -182
203 24 243 303 55 382 -41 17 -110 19 -147 4z m99 -190 c0 -109 0 -110 -22
-107 -21 3 -23 8 -23 76 0 69 -1 73 -21 68 -32 -8 -24 31 12 54 52 33 54 30
54 -91z"/>
<path d="M3530 4405 l0 -515 25 0 25 0 0 515 0 515 -25 0 -25 0 0 -515z"/>
<path d="M9020 4435 l0 -485 -697 -2 -698 -3 -3 -27 -3 -28 1005 0 1006 0 0
30 0 30 -275 0 -275 0 0 485 0 485 -30 0 -30 0 0 -485z"/>
<path d="M6000 4361 l0 -471 445 0 445 0 0 30 0 30 -415 0 -415 0 -2 438 -3
437 -27 3 -28 3 0 -470z"/>
<path d="M6365 4496 c-83 -31 -145 -133 -130 -215 18 -96 85 -160 176 -169 68
-6 123 13 165 60 44 49 54 76 54 141 -1 134 -139 229 -265 183z m125 -97 c0
-6 -9 -24 -20 -39 -20 -28 -20 -29 -2 -34 28 -9 43 -50 31 -84 -9 -28 -44 -52
-73 -52 -20 0 -66 39 -66 56 0 19 29 18 50 -1 10 -9 25 -13 34 -9 24 9 17 58
-9 62 -33 6 -38 18 -20 46 l17 26 -31 0 c-24 0 -31 4 -31 20 0 18 7 20 60 20
37 0 60 -4 60 -11z"/>
<path d="M7282 4484 c-82 -41 -126 -135 -103 -221 16 -60 51 -105 101 -130
137 -70 296 26 294 176 -1 62 -18 103 -61 143 -65 62 -148 73 -231 32z m128
-72 c32 -26 28 -65 -9 -118 l-32 -44 35 0 c29 0 36 -4 36 -20 0 -18 -7 -20
-70 -20 -38 0 -70 4 -70 8 0 5 20 35 45 66 44 58 55 89 34 101 -5 4 -18 0 -28
-9 -24 -22 -41 -20 -41 3 0 22 35 51 61 51 9 0 27 -8 39 -18z"/>
<path d="M3530 2170 l0 -1120 25 0 25 0 0 605 0 605 360 0 360 0 0 30 0 30
-360 0 -360 0 0 485 0 485 -25 0 -25 0 0 -1120z"/>
<path d="M1776 1626 c-80 -30 -129 -100 -129 -186 0 -110 71 -189 179 -198 64
-5 106 9 153 52 43 40 61 83 61 148 -1 134 -138 230 -264 184z m124 -96 c0
-17 -7 -20 -40 -20 -33 0 -40 -3 -40 -20 0 -13 5 -17 14 -14 16 6 56 -12 68
-30 27 -40 -16 -116 -67 -116 -25 0 -65 31 -65 50 0 19 32 24 42 7 21 -39 66
-8 52 35 -5 16 -12 19 -32 14 -58 -14 -57 -15 -53 44 2 30 5 58 8 63 2 4 29 7
59 7 47 0 54 -2 54 -20z"/>
<path d="M4543 1631 c-49 -12 -103 -58 -124 -105 -61 -135 33 -286 178 -286
159 1 249 162 170 303 -39 69 -141 109 -224 88z m97 -85 c0 -3 -9 -21 -21 -40
-18 -31 -19 -36 -5 -36 24 0 56 -37 56 -65 0 -33 -42 -75 -73 -75 -14 0 -35 8
-47 18 -32 26 -28 68 12 141 25 46 38 61 56 61 12 0 22 -2 22 -4z"/>
<path d="M4574 1415 c-8 -21 2 -45 19 -45 21 0 38 25 31 44 -8 20 -43 21 -50
1z"/>
<path d="M10182 1615 c-173 -88 -126 -354 66 -373 122 -11 222 76 222 195 0
104 -75 187 -180 199 -47 5 -63 1 -108 -21z m118 -181 c0 -104 0 -105 -22
-102 -21 3 -23 8 -23 75 0 70 -1 72 -22 66 -17 -4 -23 -1 -23 10 0 20 47 57
71 57 17 0 19 -9 19 -106z"/>
<path d="M8832 1793 c-72 -77 -80 -89 -67 -103 13 -13 22 -7 75 45 l60 59 0
-147 c0 -140 1 -147 20 -147 19 0 20 7 20 140 0 77 3 140 7 140 4 0 31 -23 60
-52 50 -49 54 -51 70 -35 16 16 13 22 -67 102 -47 47 -87 85 -91 85 -3 0 -43
-39 -87 -87z"/>
</g>
</svg>
